<svg xmlns="http://www.w3.org/2000/svg" xmlns:xlink="http://www.w3.org/1999/xlink" width="500" zoomAndPan="magnify" viewBox="0 0 375 374.999991" height="500" preserveAspectRatio="xMidYMid meet" version="1.0"><defs><g/><clipPath id="5e74da2223"><path d="M 139.347656 102.574219 L 235.347656 102.574219 L 235.347656 212.824219 L 139.347656 212.824219 Z M 139.347656 102.574219 " clip-rule="nonzero"/></clipPath></defs><g fill="#463f57" fill-opacity="1"><g transform="translate(84.840032, 264.045368)"><g><path d="M 16.828125 0 L 7.984375 0 C 7.554688 0 7.203125 -0.078125 6.921875 -0.234375 C 6.640625 -0.390625 6.414062 -0.6875 6.25 -1.125 L 2.921875 -9.453125 C 2.722656 -9.953125 2.550781 -10.390625 2.40625 -10.765625 C 2.269531 -11.140625 2.15625 -11.492188 2.0625 -11.828125 C 1.976562 -12.171875 1.921875 -12.53125 1.890625 -12.90625 C 1.859375 -13.28125 1.84375 -13.738281 1.84375 -14.28125 L 1.84375 -23.25 C 1.84375 -23.6875 1.9375 -24 2.125 -24.1875 C 2.3125 -24.382812 2.625 -24.484375 3.0625 -24.484375 L 8.46875 -24.484375 C 8.894531 -24.484375 9.222656 -24.382812 9.453125 -24.1875 C 9.679688 -24 9.796875 -23.6875 9.796875 -23.25 L 9.796875 -13.875 C 9.796875 -13.644531 9.816406 -13.414062 9.859375 -13.1875 C 9.898438 -12.96875 9.96875 -12.734375 10.0625 -12.484375 L 11.65625 -7.71875 C 11.726562 -7.488281 11.804688 -7.332031 11.890625 -7.25 C 11.984375 -7.175781 12.125 -7.140625 12.3125 -7.140625 L 12.6875 -7.140625 C 12.863281 -7.140625 12.992188 -7.175781 13.078125 -7.25 C 13.171875 -7.332031 13.253906 -7.488281 13.328125 -7.71875 L 14.921875 -12.515625 C 15.015625 -12.765625 15.082031 -13 15.125 -13.21875 C 15.175781 -13.445312 15.203125 -13.675781 15.203125 -13.90625 L 15.203125 -23.25 C 15.203125 -23.6875 15.296875 -24 15.484375 -24.1875 C 15.679688 -24.382812 15.992188 -24.484375 16.421875 -24.484375 L 21.765625 -24.484375 C 22.191406 -24.484375 22.5 -24.382812 22.6875 -24.1875 C 22.882812 -24 22.984375 -23.6875 22.984375 -23.25 L 22.984375 -14.28125 C 22.984375 -13.738281 22.960938 -13.28125 22.921875 -12.90625 C 22.890625 -12.53125 22.828125 -12.171875 22.734375 -11.828125 C 22.648438 -11.492188 22.539062 -11.140625 22.40625 -10.765625 C 22.269531 -10.390625 22.097656 -9.953125 21.890625 -9.453125 L 18.5625 -1.125 C 18.40625 -0.6875 18.179688 -0.390625 17.890625 -0.234375 C 17.609375 -0.078125 17.253906 0 16.828125 0 Z M 16.828125 0 "/></g></g></g><g fill="#463f57" fill-opacity="1"><g transform="translate(112.204064, 264.045368)"><g><path d="M 3.03125 0 C 2.59375 0 2.273438 -0.09375 2.078125 -0.28125 C 1.890625 -0.476562 1.796875 -0.789062 1.796875 -1.21875 L 1.796875 -5.265625 C 1.796875 -5.703125 1.890625 -6.015625 2.078125 -6.203125 C 2.273438 -6.398438 2.59375 -6.5 3.03125 -6.5 L 6.390625 -6.5 L 6.390625 -17.921875 L 3.03125 -17.921875 C 2.59375 -17.921875 2.273438 -18.015625 2.078125 -18.203125 C 1.890625 -18.398438 1.796875 -18.710938 1.796875 -19.140625 L 1.796875 -23.25 C 1.796875 -23.6875 1.890625 -24 2.078125 -24.1875 C 2.273438 -24.382812 2.59375 -24.484375 3.03125 -24.484375 L 17.515625 -24.484375 C 17.941406 -24.484375 18.25 -24.382812 18.4375 -24.1875 C 18.632812 -24 18.734375 -23.6875 18.734375 -23.25 L 18.734375 -19.140625 C 18.734375 -18.710938 18.632812 -18.398438 18.4375 -18.203125 C 18.25 -18.015625 17.941406 -17.921875 17.515625 -17.921875 L 14.21875 -17.921875 L 14.21875 -6.5 L 17.515625 -6.5 C 17.941406 -6.5 18.25 -6.398438 18.4375 -6.203125 C 18.632812 -6.015625 18.734375 -5.703125 18.734375 -5.265625 L 18.734375 -1.21875 C 18.734375 -0.789062 18.632812 -0.476562 18.4375 -0.28125 C 18.25 -0.09375 17.941406 0 17.515625 0 Z M 3.03125 0 "/></g></g></g><g fill="#463f57" fill-opacity="1"><g transform="translate(135.31912, 264.045368)"><g><path d="M 8.671875 0 L 3.5625 0 C 3.132812 0 2.820312 -0.09375 2.625 -0.28125 C 2.4375 -0.476562 2.34375 -0.789062 2.34375 -1.21875 L 2.34375 -23.25 C 2.34375 -23.6875 2.4375 -24 2.625 -24.1875 C 2.820312 -24.382812 3.132812 -24.484375 3.5625 -24.484375 L 7.109375 -24.484375 C 7.535156 -24.484375 7.898438 -24.414062 8.203125 -24.28125 C 8.515625 -24.144531 8.816406 -23.90625 9.109375 -23.5625 L 15.703125 -16.015625 L 15.703125 -23.25 C 15.703125 -23.6875 15.796875 -24 15.984375 -24.1875 C 16.179688 -24.382812 16.5 -24.484375 16.9375 -24.484375 L 22.03125 -24.484375 C 22.457031 -24.484375 22.765625 -24.382812 22.953125 -24.1875 C 23.148438 -24 23.25 -23.6875 23.25 -23.25 L 23.25 -1.21875 C 23.25 -0.789062 23.148438 -0.476562 22.953125 -0.28125 C 22.765625 -0.09375 22.457031 0 22.03125 0 L 16.9375 0 C 16.5 0 16.179688 -0.09375 15.984375 -0.28125 C 15.796875 -0.476562 15.703125 -0.789062 15.703125 -1.21875 L 15.703125 -5.40625 L 9.890625 -12.4375 L 9.890625 -1.21875 C 9.890625 -0.789062 9.789062 -0.476562 9.59375 -0.28125 C 9.40625 -0.09375 9.097656 0 8.671875 0 Z M 8.671875 0 "/></g></g></g><g fill="#463f57" fill-opacity="1"><g transform="translate(163.464956, 264.045368)"><g><path d="M 11.21875 -17.34375 L 9.625 -12.171875 L 14.953125 -12.171875 L 13.359375 -17.34375 C 13.265625 -17.539062 13.164062 -17.6875 13.0625 -17.78125 C 12.96875 -17.875 12.851562 -17.921875 12.71875 -17.921875 L 11.859375 -17.921875 C 11.722656 -17.921875 11.601562 -17.875 11.5 -17.78125 C 11.40625 -17.6875 11.3125 -17.539062 11.21875 -17.34375 Z M 9.28125 -1.21875 C 9.28125 -0.789062 9.179688 -0.476562 8.984375 -0.28125 C 8.796875 -0.09375 8.488281 0 8.0625 0 L 3.0625 0 C 2.625 0 2.3125 -0.09375 2.125 -0.28125 C 1.9375 -0.476562 1.84375 -0.789062 1.84375 -1.21875 L 1.84375 -10.203125 C 1.84375 -10.878906 1.945312 -11.660156 2.15625 -12.546875 C 2.375 -13.429688 2.707031 -14.460938 3.15625 -15.640625 L 6.125 -23.359375 C 6.257812 -23.742188 6.46875 -24.023438 6.75 -24.203125 C 7.03125 -24.390625 7.398438 -24.484375 7.859375 -24.484375 L 17 -24.484375 C 17.425781 -24.484375 17.78125 -24.390625 18.0625 -24.203125 C 18.351562 -24.023438 18.566406 -23.742188 18.703125 -23.359375 L 21.65625 -15.640625 C 22.113281 -14.460938 22.445312 -13.429688 22.65625 -12.546875 C 22.875 -11.660156 22.984375 -10.878906 22.984375 -10.203125 L 22.984375 -1.21875 C 22.984375 -0.789062 22.882812 -0.476562 22.6875 -0.28125 C 22.5 -0.09375 22.191406 0 21.765625 0 L 16.625 0 C 16.175781 0 15.84375 -0.09375 15.625 -0.28125 C 15.40625 -0.476562 15.296875 -0.789062 15.296875 -1.21875 L 15.296875 -5.984375 L 9.28125 -5.984375 Z M 9.28125 -1.21875 "/></g></g></g><g fill="#463f57" fill-opacity="1"><g transform="translate(190.828992, 264.045368)"><g><path d="M 13.90625 0 L 8.390625 0 C 7.960938 0 7.648438 -0.09375 7.453125 -0.28125 C 7.265625 -0.476562 7.171875 -0.789062 7.171875 -1.21875 L 7.171875 -17.921875 L 2.171875 -17.921875 C 1.742188 -17.921875 1.429688 -18.015625 1.234375 -18.203125 C 1.046875 -18.398438 0.953125 -18.710938 0.953125 -19.140625 L 0.953125 -23.25 C 0.953125 -23.6875 1.046875 -24 1.234375 -24.1875 C 1.429688 -24.382812 1.742188 -24.484375 2.171875 -24.484375 L 20.125 -24.484375 C 20.5625 -24.484375 20.875 -24.382812 21.0625 -24.1875 C 21.257812 -24 21.359375 -23.6875 21.359375 -23.25 L 21.359375 -19.140625 C 21.359375 -18.710938 21.257812 -18.398438 21.0625 -18.203125 C 20.875 -18.015625 20.5625 -17.921875 20.125 -17.921875 L 15.125 -17.921875 L 15.125 -1.21875 C 15.125 -0.789062 15.023438 -0.476562 14.828125 -0.28125 C 14.640625 -0.09375 14.332031 0 13.90625 0 Z M 13.90625 0 "/></g></g></g><g fill="#463f57" fill-opacity="1"><g transform="translate(215.677627, 264.045368)"><g><path d="M 19.34375 0 L 3.5625 0 C 3.132812 0 2.820312 -0.09375 2.625 -0.28125 C 2.4375 -0.476562 2.34375 -0.789062 2.34375 -1.21875 L 2.34375 -23.25 C 2.34375 -23.6875 2.4375 -24 2.625 -24.1875 C 2.820312 -24.382812 3.132812 -24.484375 3.5625 -24.484375 L 19.34375 -24.484375 C 19.769531 -24.484375 20.078125 -24.382812 20.265625 -24.1875 C 20.460938 -24 20.5625 -23.6875 20.5625 -23.25 L 20.5625 -19.28125 C 20.5625 -18.84375 20.460938 -18.523438 20.265625 -18.328125 C 20.078125 -18.140625 19.769531 -18.046875 19.34375 -18.046875 L 9.96875 -18.046875 L 9.96875 -15.4375 L 16.59375 -15.4375 C 17.019531 -15.4375 17.328125 -15.335938 17.515625 -15.140625 C 17.710938 -14.953125 17.8125 -14.644531 17.8125 -14.21875 L 17.8125 -10.578125 C 17.8125 -10.140625 17.710938 -9.820312 17.515625 -9.625 C 17.328125 -9.4375 17.019531 -9.34375 16.59375 -9.34375 L 9.96875 -9.34375 L 9.96875 -6.421875 L 19.34375 -6.421875 C 19.769531 -6.421875 20.078125 -6.320312 20.265625 -6.125 C 20.460938 -5.9375 20.5625 -5.628906 20.5625 -5.203125 L 20.5625 -1.21875 C 20.5625 -0.789062 20.460938 -0.476562 20.265625 -0.28125 C 20.078125 -0.09375 19.769531 0 19.34375 0 Z M 19.34375 0 "/></g></g></g><g fill="#463f57" fill-opacity="1"><g transform="translate(240.458283, 264.045368)"><g><path d="M 18.625 0 L 10.34375 0 C 7.507812 0 5.40625 -0.566406 4.03125 -1.703125 C 2.65625 -2.835938 1.96875 -4.582031 1.96875 -6.9375 L 1.96875 -17.515625 C 1.96875 -19.867188 2.65625 -21.617188 4.03125 -22.765625 C 5.40625 -23.910156 7.507812 -24.484375 10.34375 -24.484375 L 18.625 -24.484375 C 19.0625 -24.484375 19.375 -24.382812 19.5625 -24.1875 C 19.757812 -24 19.859375 -23.6875 19.859375 -23.25 L 19.859375 -19.140625 C 19.859375 -18.710938 19.757812 -18.398438 19.5625 -18.203125 C 19.375 -18.015625 19.0625 -17.921875 18.625 -17.921875 L 11.796875 -17.921875 C 11.097656 -17.921875 10.578125 -17.773438 10.234375 -17.484375 C 9.890625 -17.203125 9.71875 -16.78125 9.71875 -16.21875 L 9.71875 -8.125 C 9.71875 -7.5625 9.890625 -7.148438 10.234375 -6.890625 C 10.578125 -6.628906 11.097656 -6.5 11.796875 -6.5 L 18.625 -6.5 C 19.0625 -6.5 19.375 -6.398438 19.5625 -6.203125 C 19.757812 -6.015625 19.859375 -5.703125 19.859375 -5.265625 L 19.859375 -1.21875 C 19.859375 -0.789062 19.757812 -0.476562 19.5625 -0.28125 C 19.375 -0.09375 19.0625 0 18.625 0 Z M 18.625 0 "/></g></g></g><g fill="#463f57" fill-opacity="1"><g transform="translate(264.355152, 264.045368)"><g><path d="M 8.84375 0 L 3.5625 0 C 3.132812 0 2.820312 -0.09375 2.625 -0.28125 C 2.4375 -0.476562 2.34375 -0.789062 2.34375 -1.21875 L 2.34375 -23.25 C 2.34375 -23.6875 2.4375 -24 2.625 -24.1875 C 2.820312 -24.382812 3.132812 -24.484375 3.5625 -24.484375 L 8.84375 -24.484375 C 9.269531 -24.484375 9.578125 -24.382812 9.765625 -24.1875 C 9.960938 -24 10.0625 -23.6875 10.0625 -23.25 L 10.0625 -15.875 L 15.734375 -15.875 L 15.734375 -23.25 C 15.734375 -23.6875 15.828125 -24 16.015625 -24.1875 C 16.210938 -24.382812 16.53125 -24.484375 16.96875 -24.484375 L 22.234375 -24.484375 C 22.660156 -24.484375 22.96875 -24.382812 23.15625 -24.1875 C 23.351562 -24 23.453125 -23.6875 23.453125 -23.25 L 23.453125 -1.21875 C 23.453125 -0.789062 23.351562 -0.476562 23.15625 -0.28125 C 22.96875 -0.09375 22.660156 0 22.234375 0 L 16.96875 0 C 16.53125 0 16.210938 -0.09375 16.015625 -0.28125 C 15.828125 -0.476562 15.734375 -0.789062 15.734375 -1.21875 L 15.734375 -8.765625 L 10.0625 -8.765625 L 10.0625 -1.21875 C 10.0625 -0.789062 9.960938 -0.476562 9.765625 -0.28125 C 9.578125 -0.09375 9.269531 0 8.84375 0 Z M 8.84375 0 "/></g></g></g><path fill="#463f57" d="M 218.464844 139.601562 C 218.269531 139.242188 218.015625 138.886719 217.480469 138.617188 L 209.878906 134.199219 C 209.773438 134.136719 209.664062 134.09375 209.542969 134.0625 C 209.503906 134.050781 209.46875 134.050781 209.425781 134.046875 C 209.347656 134.03125 209.269531 134.019531 209.191406 134.019531 L 209.175781 134.019531 L 209.175781 134.023438 C 208.949219 134.027344 208.730469 134.085938 208.535156 134.199219 L 191.429688 144.140625 L 191.414062 144.109375 L 190.035156 144.914062 C 188.371094 145.878906 186.324219 145.878906 184.65625 144.914062 L 177.179688 140.570312 C 176.765625 140.328125 176.511719 139.878906 176.511719 139.398438 C 176.511719 138.914062 176.765625 138.464844 177.179688 138.222656 L 184.65625 133.882812 C 186.324219 132.914062 188.371094 132.914062 190.035156 133.882812 L 191.835938 134.929688 C 192.25 135.167969 192.761719 135.167969 193.175781 134.929688 L 200.140625 130.882812 C 200.558594 130.640625 200.8125 130.195312 200.8125 129.710938 C 200.8125 129.226562 200.558594 128.78125 200.140625 128.539062 L 190.035156 122.664062 C 188.371094 121.699219 186.324219 121.699219 184.65625 122.664062 L 159.898438 137.054688 C 158.105469 138.09375 158.105469 140.699219 159.898438 141.738281 L 184.65625 156.128906 C 186.324219 157.09375 188.371094 157.09375 190.035156 156.128906 L 209.175781 145.003906 L 209.175781 170.339844 L 203.023438 173.925781 L 190.035156 181.5 C 189.621094 181.734375 189.183594 181.917969 188.726562 182.042969 C 187.355469 182.40625 185.890625 182.210938 184.65625 181.5 L 166.859375 171.15625 C 166.027344 170.671875 165.515625 169.777344 165.515625 168.8125 L 165.515625 154.042969 C 165.515625 153.558594 165.257812 153.109375 164.84375 152.875 L 157.882812 148.824219 C 157.464844 148.582031 156.953125 148.582031 156.539062 148.824219 C 156.121094 149.066406 155.867188 149.515625 155.867188 149.996094 L 155.867188 174.421875 C 155.867188 175.386719 156.378906 176.277344 157.210938 176.765625 L 184.65625 192.714844 C 185.464844 193.183594 186.378906 193.429688 187.308594 193.4375 L 187.328125 193.4375 C 187.457031 193.4375 187.589844 193.421875 187.722656 193.414062 C 187.824219 193.40625 187.921875 193.40625 188.023438 193.394531 C 188.164062 193.375 188.300781 193.34375 188.4375 193.316406 C 188.53125 193.292969 188.625 193.28125 188.714844 193.257812 C 188.863281 193.222656 189.007812 193.164062 189.148438 193.113281 C 189.234375 193.082031 189.3125 193.0625 189.386719 193.03125 C 189.609375 192.941406 189.824219 192.835938 190.03125 192.714844 L 213.710938 178.953125 L 217.464844 176.808594 C 218.304688 176.332031 218.828125 175.433594 218.828125 174.457031 L 218.828125 140.957031 C 218.828125 140.476562 218.695312 140.007812 218.464844 139.601562 " fill-opacity="1" fill-rule="nonzero"/><g clip-path="url(#5e74da2223)"><path fill="#463f57" d="M 189.96875 114.574219 C 189.167969 114.113281 188.269531 113.863281 187.347656 113.855469 C 186.425781 113.863281 185.523438 114.113281 184.726562 114.574219 L 151.652344 133.792969 C 149.992188 134.757812 148.96875 136.539062 148.96875 138.46875 L 148.96875 176.910156 C 148.96875 178.839844 149.992188 180.621094 151.652344 181.582031 L 184.726562 200.800781 C 185.535156 201.273438 186.449219 201.523438 187.382812 201.527344 C 188.316406 201.523438 189.234375 201.273438 190.046875 200.804688 L 222.976562 181.667969 C 224.632812 180.707031 225.65625 178.925781 225.65625 176.996094 L 225.65625 165.886719 C 225.652344 165.40625 225.910156 164.960938 226.324219 164.71875 L 233.335938 160.644531 C 233.75 160.40625 234.261719 160.40625 234.675781 160.644531 C 235.089844 160.886719 235.347656 161.332031 235.347656 161.816406 L 235.347656 182.503906 C 235.34375 183.386719 235.125 184.253906 234.710938 185.03125 C 234.609375 185.542969 234.054688 186.140625 233.277344 186.757812 C 233.261719 186.773438 233.238281 186.785156 233.21875 186.800781 C 231.238281 188.351562 227.960938 189.953125 227.382812 190.292969 L 190.046875 211.988281 C 189.210938 212.472656 188.257812 212.71875 187.292969 212.710938 L 187.253906 212.710938 L 187.253906 212.707031 C 186.363281 212.683594 185.492188 212.433594 184.726562 211.988281 L 142.027344 187.175781 C 140.367188 186.214844 139.347656 184.433594 139.347656 182.503906 L 139.347656 132.878906 C 139.347656 132.011719 139.457031 131.128906 139.832031 130.382812 C 139.886719 130.1875 140.402344 129.234375 141.46875 128.449219 C 141.871094 128.179688 142.582031 127.8125 143.246094 127.425781 L 184.605469 103.390625 C 185.4375 102.910156 186.386719 102.660156 187.347656 102.671875 C 188.308594 102.660156 189.253906 102.910156 190.089844 103.390625 L 228.25 125.566406 C 228.339844 125.621094 228.40625 125.683594 228.480469 125.746094 L 228.964844 126.023438 C 230.261719 126.714844 232.292969 127.769531 233.398438 128.613281 L 233.488281 128.683594 C 233.5 128.691406 233.515625 128.703125 233.53125 128.714844 C 233.570312 128.746094 233.59375 128.777344 233.632812 128.8125 C 234.039062 129.152344 234.382812 129.554688 234.648438 130 C 234.65625 130.007812 234.660156 130.015625 234.667969 130.023438 L 234.664062 130.023438 C 235.109375 130.773438 235.347656 131.628906 235.347656 132.503906 L 235.347656 150.675781 C 235.347656 151.15625 235.089844 151.601562 234.675781 151.84375 L 227.664062 155.921875 C 227.25 156.15625 226.738281 156.15625 226.324219 155.921875 C 225.90625 155.679688 225.652344 155.234375 225.652344 154.75 L 225.652344 138.363281 C 225.652344 136.433594 224.628906 134.648438 222.96875 133.6875 Z M 189.96875 114.574219 " fill-opacity="1" fill-rule="nonzero"/></g></svg>